<svg width="0" height="0" class="hidden">
  <symbol
    id="box"
    width="42"
    height="40"
    viewBox="0 0 42 40"
    fill="none"
    xmlns="http://www.w3.org/2000/svg"
  >
    <path
      d="M19.8993 8.45892L14.4696 11.5701L9.73606 14.3098L10.2929 14.6812L19.8993 20.1606V8.45892ZM26.6284 26.6616L38.1838 20.0213L34.332 15.7493L22.7765 22.3895L26.6284 26.6616ZM40.5042 21.2751L35.6778 24.0147V30.4692C35.6778 30.8407 35.4922 31.2122 35.1209 31.4444L21.7556 39.1062C21.57 39.292 21.3379 39.3848 21.0595 39.3848H21.0131C20.7346 39.3848 20.4562 39.292 20.2705 39.1062L6.95161 31.4444C6.58035 31.2122 6.39472 30.8407 6.39472 30.4692V24.0147L1.56835 21.2751C1.01146 20.95 0.825827 20.2535 1.15068 19.7427C1.19709 19.6498 1.24349 19.557 1.33631 19.4641L5.88424 14.4491L1.33631 10.5949C0.872234 10.177 0.779419 9.4805 1.19709 9.01614C1.2899 8.92327 1.38272 8.8304 1.47553 8.78397L16.0939 0.286308C16.6044 0.00769599 17.1612 0.147002 17.5325 0.56492L21.0131 4.79053L24.4936 0.56492C24.8649 0.147002 25.4218 0.00769599 25.9323 0.286308L40.5506 8.78397C40.6898 8.8304 40.7826 8.92327 40.8754 9.01614C41.2467 9.4805 41.2003 10.177 40.7362 10.5949L36.1419 14.4491L40.7362 19.4641C40.7826 19.557 40.8754 19.6498 40.9219 19.7427C41.2467 20.2535 41.0611 20.95 40.5042 21.2751ZM33.4503 25.3149L26.9532 29.0298C26.5355 29.2619 25.9323 29.2155 25.6074 28.7976L22.1733 25.0363V36.3201L33.4503 29.8192V25.3149ZM22.1733 20.1606L31.5476 14.7741L32.3365 14.3098L22.1733 8.45892V20.1606ZM15.0729 29.0298L8.62228 25.3149V29.8192L19.8993 36.3201V25.0363L16.4651 28.7976C16.1403 29.2155 15.537 29.3084 15.0729 29.0298ZM3.84231 20.0213L15.4442 26.6616L19.2496 22.3895L7.74054 15.7493L3.84231 20.0213ZM22.7301 6.23003L34.4248 12.9631L38.091 9.89841L25.6074 2.70094L22.7301 6.23003ZM9.87528 11.663L19.296 6.23003L16.4187 2.70094L3.98153 9.89841L7.60131 12.9631L9.87528 11.663Z"
      fill="#1F1D1D"
    />
  </symbol>
</svg>
